<?xml version="1.0" encoding="UTF-8"?>
<!DOCTYPE svg PUBLIC "-//W3C//DTD SVG 1.1//EN" "http://www.w3.org/Graphics/SVG/1.1/DTD/svg11.dtd">
<!-- Creator: CorelDRAW 2018 (64-Bit) -->
<svg xmlns="http://www.w3.org/2000/svg" xml:space="preserve" width="83.6254mm" height="83.6254mm" version="1.1" style="shape-rendering:geometricPrecision; text-rendering:geometricPrecision; image-rendering:optimizeQuality; fill-rule:evenodd; clip-rule:evenodd"
viewBox="0 0 3118.43 3118.43"
 xmlns:xlink="http://www.w3.org/1999/xlink">
 <defs>
  <style type="text/css">
   <![CDATA[
    .str1 {stroke:white;stroke-width:7.46;stroke-miterlimit:22.9256}
    .str0 {stroke:white;stroke-width:149.16;stroke-linejoin:round;stroke-miterlimit:22.9256}
    .fil0 {fill:none}
    .fil1 {fill:#0F478C}
    .fil2 {fill:white}
   ]]>
  </style>
 </defs>
 <g id="Layer_x0020_1">
  <metadata id="CorelCorpID_0Corel-Layer"/>
  <g>
   <path class="fil0 str0" d="M3043.85 1559.22c0,-819.81 -664.82,-1484.63 -1484.63,-1484.63 -819.81,0 -1484.63,664.82 -1484.63,1484.63 0,819.81 664.82,1484.63 1484.63,1484.63 819.81,0 1484.63,-664.82 1484.63,-1484.63z"/>
   <path id="1" class="fil1" d="M3043.85 1559.22c0,-819.81 -664.82,-1484.63 -1484.63,-1484.63 -819.81,0 -1484.63,664.82 -1484.63,1484.63 0,819.81 664.82,1484.63 1484.63,1484.63 819.81,0 1484.63,-664.82 1484.63,-1484.63z"/>
  </g>
  <path class="fil2 str1" d="M1961.34 2226.43c-8.38,-11.96 -23.94,-16.75 -37.71,-10.17 -147.21,69.41 -314.15,143.01 -347.07,149.59 -0.6,-0.6 -2.39,-1.79 -3.58,-4.2 -4.2,-5.99 -6.59,-13.77 -6.59,-23.94 0,-83.18 62.84,-336.3 186.71,-752.2 104.73,-349.48 116.69,-421.87 116.69,-445.8 0,-37.11 -14.37,-68.21 -41.29,-90.36 -25.73,-20.95 -61.03,-31.72 -105.92,-31.72 -74.8,0 -160.98,28.12 -263.89,86.77 -99.93,56.25 -211.84,152 -331.5,284.25 -9.57,10.17 -10.17,25.73 -2.39,37.11 7.78,11.36 22.74,15.56 35.9,10.77 41.88,-17.35 253.72,-104.13 284.84,-123.27 25.13,-15.56 47.28,-23.94 65.22,-23.94 0.6,0 1.2,0 1.79,0 0,1.2 0.6,2.99 0.6,5.39 0,17.95 -3.58,40.09 -11.36,64.04 -180.12,584.04 -268.09,942.48 -268.09,1095.06 0,53.86 14.96,96.94 44.27,128.66 29.93,32.31 70.62,48.47 120.29,48.47 53.25,0 117.88,-22.15 198.06,-68.21 77.19,-44.27 195.68,-141.82 361.43,-297.4 10.17,-10.78 11.96,-26.94 3.58,-38.92zm-5.99 -1692.87c-29.33,-29.93 -67.02,-45.49 -111.91,-45.49 -55.66,0 -104.72,22.15 -144.82,65.83 -39.5,43.08 -59.24,95.15 -59.24,156.18 0,47.88 14.96,87.97 43.68,118.48 29.33,31.12 66.42,46.68 110.7,46.68 53.86,0 101.72,-23.34 143.62,-69.41 41.29,-45.49 62.24,-98.14 62.24,-157.97 0.02,-46.08 -14.95,-84.37 -44.27,-114.3z"/>
 </g>
</svg>
