<?xml version="1.0" encoding="UTF-8"?>
<!DOCTYPE svg PUBLIC "-//W3C//DTD SVG 1.1//EN" "http://www.w3.org/Graphics/SVG/1.1/DTD/svg11.dtd">
<!-- Creator: CorelDRAW 2018 (64-Bit) -->
<svg xmlns="http://www.w3.org/2000/svg" xml:space="preserve" width="83.6254mm" height="83.6254mm" version="1.1" style="shape-rendering:geometricPrecision; text-rendering:geometricPrecision; image-rendering:optimizeQuality; fill-rule:evenodd; clip-rule:evenodd"
viewBox="0 0 13928.69 13928.69"
 xmlns:xlink="http://www.w3.org/1999/xlink">
 <defs>
  <style type="text/css">
   <![CDATA[
    .str1 {stroke:white;stroke-width:33.31;stroke-miterlimit:22.9256}
    .str0 {stroke:white;stroke-width:666.24;stroke-linejoin:round;stroke-miterlimit:22.9256}
    .fil0 {fill:none}
    .fil1 {fill:gray}
    .fil2 {fill:white}
   ]]>
  </style>
 </defs>
 <g id="Layer_x0020_1">
  <metadata id="CorelCorpID_0Corel-Layer"/>
  <g>
   <path class="fil0 str0" d="M13595.57 6964.35c0,-3661.75 -2969.48,-6631.23 -6631.23,-6631.23 -3661.75,0 -6631.23,2969.48 -6631.23,6631.23 0,3661.75 2969.48,6631.23 6631.23,6631.23 3661.75,0 6631.23,-2969.48 6631.23,-6631.23z"/>
   <path id="1" class="fil1" d="M13595.57 6964.35c0,-3661.75 -2969.48,-6631.23 -6631.23,-6631.23 -3661.75,0 -6631.23,2969.48 -6631.23,6631.23 0,3661.75 2969.48,6631.23 6631.23,6631.23 3661.75,0 6631.23,-2969.48 6631.23,-6631.23z"/>
  </g>
  <path class="fil2 str1" d="M8760.47 9944.5c-37.43,-53.42 -106.92,-74.84 -168.43,-45.42 -657.51,310 -1403.19,638.76 -1550.2,668.17 -2.66,-2.66 -10.66,-7.99 -16.01,-18.74 -18.74,-26.75 -29.41,-61.51 -29.41,-106.92 0,-371.51 280.67,-1502.13 833.94,-3359.74 467.77,-1560.96 521.18,-1884.3 521.18,-1991.21 0,-165.74 -64.18,-304.67 -184.42,-403.59 -114.93,-93.57 -272.59,-141.66 -473.1,-141.66 -334.09,0 -719.03,125.59 -1178.7,387.59 -446.33,251.26 -946.18,678.93 -1480.69,1269.61 -42.76,45.42 -45.42,114.93 -10.68,165.74 34.76,50.75 101.59,69.51 160.35,48.09 187.08,-77.5 1133.26,-465.09 1272.27,-550.58 112.25,-69.51 211.17,-106.93 291.33,-106.93 2.66,0 5.35,0 8.01,0 0,5.35 2.66,13.34 2.66,24.08 0,80.17 -16.01,179.09 -50.75,286.02 -804.52,2608.64 -1197.45,4209.67 -1197.45,4891.18 0,240.58 66.84,433.01 197.76,574.68 133.68,144.32 315.43,216.5 537.27,216.5 237.83,0 526.5,-98.92 884.67,-304.67 344.76,-197.76 874.03,-633.43 1614.37,-1328.37 45.42,-48.15 53.42,-120.32 16.01,-173.82zm-26.75 -7561.33c-131,-133.66 -299.34,-203.17 -499.85,-203.17 -248.59,0 -467.75,98.92 -646.84,294.01 -176.42,192.41 -264.6,425 -264.6,697.59 0,213.85 66.84,392.93 195.09,529.18 131,139.01 296.68,208.5 494.44,208.5 240.58,0 454.34,-104.25 641.51,-310 184.42,-203.17 278.01,-438.34 278.01,-705.6 0.08,-205.84 -66.76,-376.84 -197.76,-510.51z"/>
 </g>
</svg>
